<svg xmlns="http://www.w3.org/2000/svg" viewBox="0 0 326.468994140625 318.67498779296875">
    <path fill="none" pointer-events="none" d="M0 0h326.469v318.675H0z" />
    <path class="st1"
        d="M13.433 160.296c0 83.2 67.5 150.7 150.7 150.7 83.2 0 150.7-67.5 150.7-150.7 0-83.2-67.5-150.7-150.7-150.7-83.2.1-150.7 67.5-150.7 150.7zm241.1 0c0 49.9-40.5 90.4-90.4 90.4-49.9 0-90.4-40.5-90.4-90.4 0-49.9 40.5-90.4 90.4-90.4 49.9 0 90.4 40.5 90.4 90.4z"
        fill="#03bfd7" />
    <path class="st1"
        d="M314.833 160.296c0-83.2-67.5-150.7-150.7-150.7s-150.7 67.5-150.7 150.7c0-74.9 60.7-135.6 135.6-135.6s135.6 60.7 135.6 135.6c0 58.3-47.2 105.5-105.5 105.5s-105.5-47.2-105.5-105.5c0 66.6 54 120.5 120.5 120.5 66.7.1 120.7-53.9 120.7-120.5z"
        fill="#03bfd7" />
    <path class="st1"
        d="M13.433 160.296c0 83.2 67.5 150.7 150.7 150.7s150.7-67.4 150.7-150.7c0 74.9-60.7 135.6-135.6 135.6-74.9 0-135.6-60.7-135.6-135.6 0-58.3 47.2-105.5 105.5-105.5s105.5 47.2 105.5 105.5c0-66.6-54-120.5-120.5-120.5-66.7 0-120.7 54-120.7 120.5z"
        fill="#03bfd7" />
    <path class="st2"
        d="M314.833 160.296c0-83.2-67.5-150.7-150.7-150.7s-150.7 67.5-150.7 150.7c0-74.9 60.7-135.6 135.6-135.6s135.6 60.7 135.6 135.6c0 58.3-47.2 105.5-105.5 105.5s-105.5-47.2-105.5-105.5c0 66.6 54 120.5 120.5 120.5 66.7.1 120.7-53.9 120.7-120.5z"
        fill="#78cfe1" />
    <path class="st3"
        d="M13.433 160.296c0 83.2 67.5 150.7 150.7 150.7s150.7-67.4 150.7-150.7c0 74.9-60.7 135.6-135.6 135.6-74.9 0-135.6-60.7-135.6-135.6 0-58.3 47.2-105.5 105.5-105.5s105.5 47.2 105.5 105.5c0-66.6-54-120.5-120.5-120.5-66.7 0-120.7 54-120.7 120.5z"
        fill="#08a7bc" />
</svg>